<?xml version="1.0" encoding="UTF-8"?>
<svg id="Layer_1" data-name="Layer 1" xmlns="http://www.w3.org/2000/svg" version="1.1" viewBox="0 0 104 30">
  <defs>
    <style>
      .cls-1 {
        fill: #000;
      }

      .cls-1, .cls-2 {
        stroke-width: 0px;
      }

      .cls-2 {
        fill: #fff;
      }
    </style>
  </defs>
  <path class="cls-2" d="M103.6,26.8c0,1.6-1.3,3-3,3s0,0,0,0H3.4c-1.6,0-3-1.3-3-3V3.2C.4,1.5,1.8.2,3.4.2h97.2c1.6,0,3,1.3,3,3h0s0,23.7,0,23.7h0Z"/>
  <path class="cls-1" d="M103.6,26.8c0,1.6-1.3,3-3,3s0,0,0,0H3.4c-1.6,0-3-1.3-3-3V3.2C.4,1.5,1.8.2,3.4.2h97.2c1.6,0,3,1.3,3,3h0s0,23.7,0,23.7h0Z"/>
  <path class="cls-2" d="M23.1,14.8c0-2.5,2-3.7,2.1-3.8-1.2-1.7-3-1.9-3.6-2-1.5-.2-3,.9-3.8.9s-2-.9-3.3-.9c-1.7,0-3.2,1-4.1,2.5-1.8,3-.4,7.5,1.2,10,.8,1.2,1.8,2.5,3.1,2.5,1.3,0,1.7-.8,3.2-.8s1.9.8,3.3.8c1.4,0,2.2-1.2,3-2.4,1-1.4,1.4-2.7,1.4-2.8,0,0-2.6-1-2.6-4h0ZM20.6,7.5c.7-.8,1.1-2,1-3.2-1,0-2.2.7-2.9,1.5-.6.7-1.2,1.9-1,3,1.1,0,2.2-.6,2.9-1.4Z"/>
  <path class="cls-2" d="M41.3,23.9h-1.8l-1-3h-3.3l-.9,3h-1.7l3.3-10.3h2l3.3,10.3h0ZM38.3,19.6l-.9-2.7c0-.3-.3-.9-.5-1.9h0c-.1.4-.3,1.1-.5,1.9l-.9,2.7h2.8ZM49.8,20.1c0,1.3-.3,2.3-1,3-.6.7-1.4,1-2.3,1s-1.7-.4-2.1-1.1v3.9h-1.7v-8c0-.8,0-1.6,0-2.4h1.5v1.2h.1c.6-.9,1.4-1.3,2.5-1.3s1.6.3,2.2,1c.6.7.9,1.6.9,2.7h0ZM48.2,20.2c0-.7-.2-1.3-.5-1.8-.4-.5-.8-.7-1.4-.7s-.8.1-1.1.4c-.3.3-.5.6-.6,1.1,0,.2,0,.3,0,.5v1.2c0,.5.2,1,.5,1.4.3.4.8.6,1.3.6s1.1-.2,1.5-.7c.3-.5.5-1.1.5-1.9ZM58.4,20.1c0,1.3-.3,2.3-1,3-.6.7-1.4,1-2.3,1s-1.7-.4-2.1-1.1v3.9h-1.7v-8c0-.8,0-1.6,0-2.4h1.5v1.2h.1c.5-.9,1.4-1.3,2.5-1.3s1.6.3,2.2,1c.6.7.9,1.6.9,2.7h0ZM56.7,20.2c0-.7-.2-1.3-.5-1.8-.4-.5-.8-.7-1.4-.7s-.8.1-1.1.4c-.3.3-.5.6-.6,1.1,0,.2,0,.4,0,.5v1.2c0,.5.2,1,.5,1.4.3.4.8.6,1.3.6s1.1-.2,1.5-.7c.3-.5.5-1.1.5-1.9ZM67.9,21c0,.9-.3,1.6-.9,2.1-.7.6-1.6.9-2.8.9s-2-.2-2.7-.6l.4-1.4c.7.4,1.5.6,2.4.6s1.1-.1,1.5-.4c.3-.3.5-.7.5-1.1s-.1-.8-.4-1.1c-.3-.3-.8-.6-1.4-.8-1.8-.7-2.7-1.7-2.7-3s.3-1.5,1-2.1c.6-.5,1.5-.8,2.5-.8s1.7.2,2.3.5l-.4,1.3c-.6-.3-1.2-.5-2-.5s-1,.1-1.4.4c-.3.3-.4.6-.4.9s.2.7.5,1c.3.2.8.5,1.5.8.9.4,1.5.8,2,1.3.4.5.6,1.1.6,1.8h0ZM73.4,17.7h-1.8v3.6c0,.9.3,1.4,1,1.4s.5,0,.7,0v1.3c-.3.1-.7.2-1.2.2s-1.2-.2-1.5-.6c-.4-.4-.6-1.1-.6-2v-3.7h-1.1v-1.2h1.1v-1.4l1.6-.5v1.8h1.8v1.2h0ZM81.6,20.1c0,1.1-.3,2.1-1,2.8-.7.8-1.6,1.1-2.7,1.1s-2-.4-2.6-1.1c-.6-.7-1-1.6-1-2.7s.3-2.1,1-2.8c.7-.7,1.6-1.1,2.7-1.1s2,.4,2.6,1.1c.6.7.9,1.6.9,2.7h0ZM79.9,20.2c0-.7-.1-1.3-.4-1.8-.3-.6-.8-.9-1.5-.9s-1.2.3-1.5.9c-.3.5-.4,1.1-.4,1.8s.1,1.3.4,1.8c.4.6.9.9,1.5.9s1.1-.3,1.5-.9c.3-.5.5-1.1.5-1.8h0ZM87,17.9c-.2,0-.3,0-.5,0-.6,0-1,.2-1.3.7-.3.4-.4.9-.4,1.5v3.9h-1.7v-5.1c0-.8,0-1.6,0-2.3h1.4v1.4h.1c.2-.5.4-.9.8-1.2.3-.3.8-.4,1.2-.4.2,0,.3,0,.4,0v1.6s0,0,0,0ZM94.4,19.8c0,.3,0,.5,0,.7h-5c0,.7.3,1.3.7,1.7.4.3,1,.5,1.6.5s1.4-.1,2-.4l.3,1.1c-.7.3-1.5.5-2.5.5s-2.1-.3-2.7-1c-.7-.7-1-1.6-1-2.7s.3-2.1.9-2.8c.6-.8,1.5-1.2,2.6-1.2s1.9.4,2.4,1.2c.4.6.7,1.4.7,2.3h0ZM92.8,19.4c0-.5,0-.9-.3-1.3-.3-.5-.7-.7-1.3-.7s-1,.2-1.3.7c-.3.4-.4.8-.5,1.3h3.4s0,0,0,0Z"/>
  <path class="cls-2" d="M34.8,10c-.5,0-.9,0-1.2,0v-5c.5,0,.9-.1,1.4-.1,1.9,0,2.8.9,2.8,2.5s-1,2.7-3,2.7ZM35,5.5c-.3,0-.5,0-.7,0v3.8c0,0,.3,0,.5,0,1.2,0,1.9-.7,1.9-2s-.6-1.8-1.8-1.8ZM40.5,10c-1.1,0-1.8-.8-1.8-1.9s.7-1.9,1.8-1.9,1.8.8,1.8,1.9-.7,1.9-1.8,1.9ZM40.5,6.8c-.6,0-1,.5-1,1.3s.4,1.3,1,1.3,1-.6,1-1.3-.4-1.3-.9-1.3h0ZM48.4,6.3l-1.1,3.7h-.7l-.5-1.6c-.1-.4-.2-.8-.3-1.2h0c0,.4-.2.8-.3,1.2l-.5,1.6h-.8l-1.1-3.7h.8l.4,1.7c0,.4.2.8.2,1.2h0c0-.3.2-.7.3-1.2l.5-1.7h.7l.5,1.7c.1.4.2.8.3,1.2h0c0-.4.1-.8.2-1.2l.4-1.7h.8ZM52.6,9.9h-.8v-2.1c0-.6-.2-1-.7-1s-.8.4-.8.9v2.2h-.8v-2.6c0-.3,0-.7,0-1h.7v.6h0c.2-.4.7-.6,1.2-.6.8,0,1.3.6,1.3,1.5v2.2s0,0,0,0ZM54.8,9.9h-.8v-5.3h.8v5.3ZM57.8,10c-1.1,0-1.8-.8-1.8-1.9s.7-1.9,1.8-1.9,1.8.8,1.8,1.9c0,1.1-.7,1.9-1.8,1.9ZM57.8,6.8c-.6,0-1,.5-1,1.3s.4,1.3,1,1.3,1-.6,1-1.3c0-.7-.4-1.3-.9-1.3h0ZM62.8,9.9v-.4h0c-.2.3-.6.5-1.1.5-.7,0-1.1-.5-1.1-1.1,0-.9.8-1.4,2.1-1.4h0c0-.5-.3-.8-.8-.8s-.7,0-1,.3l-.2-.5c.3-.2.8-.3,1.3-.3,1,0,1.4.5,1.4,1.5v1.3c0,.4,0,.7,0,.9h-.7s0,0,0,0ZM62.7,8.1c-.9,0-1.4.2-1.4.7s.2.6.6.6.8-.3.8-.7v-.6ZM67.4,9.9v-.6h0c-.2.4-.6.7-1.2.7-.9,0-1.5-.8-1.5-1.9s.7-1.9,1.6-1.9.8.2,1,.5h0v-2.1h.8v4.3c0,.4,0,.7,0,1h-.7ZM67.3,7.8c0-.5-.3-.9-.9-.9s-1,.5-1,1.3.4,1.2,1,1.2.9-.4.9-1v-.6h0ZM73.3,10c-1.1,0-1.8-.8-1.8-1.9s.7-1.9,1.8-1.9,1.8.8,1.8,1.9c0,1.1-.7,1.9-1.8,1.9h0ZM73.3,6.8c-.6,0-1,.5-1,1.3s.4,1.3,1,1.3,1-.6,1-1.3c0-.7-.4-1.3-.9-1.3h0ZM79.4,9.9h-.8v-2.1c0-.6-.2-1-.7-1s-.8.4-.8.9v2.2h-.8v-2.6c0-.3,0-.7,0-1h.7v.6h0c.2-.4.7-.6,1.2-.6.8,0,1.3.6,1.3,1.5v2.2ZM84.9,6.9h-.9v1.8c0,.5.2.7.5.7s.3,0,.4,0v.6c-.1,0-.3,0-.6,0-.6,0-1-.4-1-1.3v-1.8h-.5v-.6h.5v-.7l.8-.2v.9h.9v.6h0ZM89.2,9.9h-.8v-2.1c0-.7-.2-1-.7-1s-.8.3-.8.9v2.2h-.8v-5.3h.8v2.2h0c.3-.4.6-.6,1.1-.6.8,0,1.2.6,1.2,1.6v2.2h0ZM93.6,8.3h-2.4c0,.7.5,1.1,1.2,1.1s.7,0,1-.2v.6c-.2.2-.6.2-1.1.2-1.1,0-1.8-.7-1.8-1.8s.7-2,1.7-2,1.5.7,1.5,1.7c0,.1,0,.2,0,.4h0ZM92.9,7.7c0-.6-.3-1-.8-1s-.8.4-.9,1h1.7Z"/>
</svg>