<svg width="145" height="46" viewBox="0 0 145 46" fill="none" xmlns="http://www.w3.org/2000/svg">
<path d="M11.6321 40.9064C8.8922 40.7995 6.33017 40.3362 3.91048 39.3741C3.83931 39.3384 3.80373 39.3028 3.73256 39.3028C2.62947 38.9108 1.98896 38.1625 1.73987 36.9865C1.38404 35.2404 0.850282 33.53 0.423277 31.7839C0.280943 31.2494 0.209775 30.7148 0.138608 30.1447C0.103024 29.9309 0.103024 29.7171 0.174191 29.5389C0.209775 29.3963 0.35211 29.1825 0.494445 29.1469C0.672363 29.1113 0.921449 29.1825 1.0282 29.3251C1.2417 29.6458 1.41962 30.0021 1.52637 30.3585C1.95338 31.7126 2.5583 32.9955 3.48348 34.1001C5.6185 36.6302 8.28728 38.305 11.5966 38.7327C14.123 39.0534 16.5427 38.697 18.7133 37.2716C20.4569 36.1313 21.7379 34.599 22.2361 32.4966C22.9834 29.1469 21.2753 26.0823 18.7133 24.8707C16.5427 23.8373 14.2653 23.0177 11.988 22.2338C9.78179 21.4854 7.64677 20.5589 5.68967 19.3117C4.01723 18.2427 2.66505 16.9242 1.84663 15.1068C1.17054 13.6102 0.957033 12.0066 1.06378 10.3674C1.38404 6.05559 3.80373 3.27608 7.64677 1.74379C10.9916 0.389668 14.4433 0.318398 17.8949 1.42308C18.6777 1.67252 19.3894 2.02887 20.1367 2.34958C20.7416 2.63466 21.2753 2.56339 21.7735 2.10014C21.8447 2.02887 21.9158 1.99323 21.987 1.92196C22.2717 1.67252 22.6275 1.74379 22.8054 2.0645C22.9122 2.34958 23.0189 2.63466 23.0189 2.91973C23.0545 4.66584 23.4459 6.37631 23.7306 8.08677C23.8374 8.7282 23.9085 9.36962 24.0153 10.011C24.0509 10.1892 24.0153 10.3674 23.9441 10.5099C23.8374 10.6881 23.6594 10.8663 23.5171 10.9019C23.3748 10.9376 23.1257 10.8306 23.0189 10.6881C22.841 10.4387 22.6987 10.1536 22.6275 9.86851C21.9514 7.73043 20.6704 6.09123 18.8556 4.80838C17.1476 3.63243 15.2617 2.81283 13.1622 2.56339C11.4186 2.34958 9.63946 2.34958 8.00261 3.13354C6.11667 4.06005 4.69332 5.41417 4.3019 7.58789C3.94607 9.58343 4.33749 11.4364 5.6185 13.04C6.47251 14.109 7.50444 14.9286 8.78545 15.3919C11.1696 16.2471 13.5537 17.1024 15.9022 17.9932C18.1084 18.8128 20.2078 19.8462 21.9514 21.4142C23.6594 22.9465 24.8337 24.7995 25.154 27.1157C25.7589 31.6413 24.2999 35.4186 20.5637 38.1625C18.6066 39.6235 16.3648 40.4075 13.9807 40.6926C13.0911 40.8351 12.3082 40.8707 11.6321 40.9064Z" fill="#001965"/>
<path d="M78.0669 16.3896C77.889 16.9598 77.7467 17.5299 77.5688 18.1001C77.3909 18.6346 77.2129 19.2048 76.9639 19.7393C76.3589 21.1291 74.3307 21.0578 73.6546 19.9887C73.3343 19.4542 73.0496 18.8841 72.8717 18.2783C71.8754 14.9999 70.9146 11.6858 69.9539 8.40745C69.9183 8.30055 69.9183 8.22928 69.8827 8.12238C70.7367 8.12238 71.5907 8.12238 72.4091 8.12238C72.6226 8.12238 72.6226 8.30055 72.6582 8.40745C73.0852 9.90411 73.5122 11.4008 73.9392 12.8974C74.473 14.7861 75.0423 16.6747 75.5761 18.5634C75.6117 18.6346 75.6117 18.7415 75.6473 18.7772C75.754 18.8841 75.8963 19.0622 76.0031 19.0622C76.1098 19.0622 76.3233 18.8841 76.3589 18.7415C76.7503 17.3518 77.1418 15.962 77.5332 14.5723C77.5688 14.4654 77.5332 14.3228 77.4976 14.1803C76.9283 12.256 76.3945 10.3674 75.8252 8.44309C75.7896 8.33618 75.754 8.19364 75.7184 8.05111C76.608 8.05111 77.462 8.05111 78.316 8.05111C78.3872 8.05111 78.494 8.19364 78.5295 8.30055C79.0277 9.97538 79.4903 11.6502 79.9885 13.325C80.4866 15.0712 80.9848 16.8173 81.483 18.5277C81.5186 18.599 81.5186 18.7059 81.5542 18.7772C81.6253 18.8841 81.7677 19.0266 81.8744 19.0266C81.9812 19.0266 82.1591 18.9197 82.2302 18.7772C82.337 18.5634 82.3726 18.3495 82.4437 18.1357C83.4045 14.8573 84.3297 11.6146 85.2549 8.33618C85.326 8.08674 85.3972 7.97984 85.6819 8.01547C85.931 8.05111 86.1445 8.01547 86.4291 8.01547C86.18 8.83507 85.9665 9.61903 85.7174 10.4386C84.9702 13.0043 84.2229 15.6057 83.4401 18.1714C83.2978 18.7059 83.0843 19.2404 82.7996 19.7037C82.0167 21.0222 80.202 21.0578 79.4191 19.7037C79.0277 18.991 78.7786 18.207 78.4939 17.423C78.3516 17.0311 78.2449 16.6391 78.1381 16.2471C78.1025 16.3896 78.0669 16.3896 78.0669 16.3896Z" fill="#001965"/>
<path d="M116.07 20.3806C115.003 20.3806 114.042 20.3806 113.046 20.3806C112.975 20.3806 112.832 20.3094 112.797 20.2381C111.872 18.2782 110.946 16.3183 110.021 14.3227V14.2871C110.377 14.2515 110.697 14.2158 111.053 14.1089C112.121 13.8595 112.69 13.325 112.797 12.2203C112.832 11.6858 112.797 11.08 112.654 10.5454C112.405 9.58331 111.658 9.19133 110.733 9.08442C110.164 9.01315 109.63 9.04879 109.06 9.01315C108.847 9.01315 108.74 9.08442 108.776 9.29823C108.776 9.79712 108.776 10.2604 108.776 10.7593C108.776 13.7882 108.776 16.8172 108.776 19.8105C108.776 19.953 108.776 20.0956 108.776 20.2737C107.886 20.2737 107.032 20.2737 106.143 20.2737C106.143 16.2114 106.143 12.149 106.143 8.05102C106.249 8.05102 106.32 8.01538 106.427 8.01538C108.029 8.01538 109.594 8.01538 111.195 8.01538C112.049 8.01538 112.903 8.12229 113.686 8.443C115.643 9.22696 115.928 11.08 115.466 12.4697C115.145 13.4319 114.362 13.9664 113.402 14.1802C113.259 14.2158 113.153 14.2515 112.975 14.2871C113.971 16.3895 115.003 18.3495 116.07 20.3806Z" fill="#001965"/>
<path d="M58.8161 30.8218C58.4603 31.0356 58.14 31.1781 57.8198 31.3563C57.6419 31.0712 57.4995 30.7862 57.3216 30.5367C56.3964 29.2539 55.0087 28.755 53.5142 29.2539C52.5534 29.5746 51.9841 30.2516 51.5926 31.1425C51.2368 31.9265 51.0945 32.7461 51.0589 33.6013C50.9521 34.9554 51.0233 36.3095 51.5571 37.5924C51.8061 38.2338 52.162 38.804 52.6601 39.2672C53.3362 39.9087 54.1547 40.1581 55.0798 39.9799C55.8271 39.8374 56.3609 39.4098 56.5744 38.6971C56.7523 38.0556 56.8234 37.3786 56.8946 36.7372C56.9302 36.1314 56.8946 35.5612 56.8946 34.9554C56.8946 34.8485 56.8946 34.7416 56.8946 34.5991C57.6775 34.5991 58.3891 34.5991 59.172 34.5991C59.172 38.2695 59.172 41.9755 59.172 45.6458C58.4247 45.6458 57.6775 45.6458 56.859 45.6458C56.859 43.7928 56.859 41.9042 56.859 40.0156C56.7167 40.0868 56.6811 40.1225 56.6099 40.1581C54.9019 41.4409 53.1227 41.4053 51.3791 40.3719C49.4932 39.2672 48.5324 37.5568 48.2833 35.4187C48.1054 33.8507 48.3189 32.3541 49.1729 31C50.0981 29.4677 51.4147 28.4343 53.2295 28.1848C55.1154 27.8997 56.859 28.2561 58.1756 29.7884C58.4247 30.1447 58.6026 30.4654 58.8161 30.8218Z" fill="#001965"/>
<path d="M78.0313 30.8573C77.7111 31.0355 77.3908 31.2137 77.0706 31.3562C76.8927 31.0711 76.7503 30.786 76.5724 30.5366C75.7184 29.2894 74.4374 28.8261 72.9784 29.1825C72.0889 29.3963 71.4483 29.9664 71.0213 30.7504C70.5943 31.4987 70.4164 32.3183 70.3453 33.1379C70.2029 34.4921 70.2385 35.8462 70.6299 37.129C70.8434 37.8417 71.1993 38.5188 71.733 39.0889C72.3735 39.766 73.1564 40.0867 74.0815 39.9798C74.9356 39.9085 75.5405 39.4097 75.7896 38.5901C75.9319 38.0912 76.0386 37.521 76.0742 37.0221C76.1098 36.3451 76.0742 35.6324 76.0742 34.9553C76.0742 34.8484 76.0742 34.7415 76.0742 34.599C76.8571 34.599 77.5687 34.599 78.3516 34.599C78.3516 38.2693 78.3516 41.9754 78.3516 45.6457C77.6043 45.6457 76.8571 45.6457 76.0742 45.6457C76.0742 43.7927 76.0742 41.9397 76.0742 40.0154C75.9675 40.0511 75.8963 40.0867 75.8607 40.1224C74.0104 41.6903 71.4128 41.1914 69.8827 39.9085C68.1035 38.4119 67.3562 36.4876 67.463 34.207C67.5697 31.8195 68.5661 29.9664 70.6655 28.7905C72.3024 27.864 74.046 27.864 75.754 28.5411C76.8215 29.0399 77.5332 29.7883 78.0313 30.8573Z" fill="#001965"/>
<path d="M36.9678 20.7728C33.5161 20.7728 30.8829 18.314 30.5627 14.8574C30.4559 13.7171 30.5627 12.6124 30.9185 11.5434C31.7725 9.1202 33.7296 7.76608 36.3984 7.80171C39.2451 7.83735 41.6648 9.65472 42.4476 12.363C42.9102 13.9309 42.8391 15.4632 42.3409 16.9955C41.5225 19.383 39.5298 20.7728 36.9678 20.7728ZM33.2671 14.2516C33.3026 14.7505 33.3382 15.285 33.3738 15.7839C33.5161 16.9598 33.872 18.0645 34.6548 18.9554C35.7223 20.167 37.4659 20.2026 38.4979 18.9554C38.8893 18.4565 39.2451 17.8863 39.4586 17.2806C40.028 15.677 40.028 13.9665 39.7789 12.2917C39.601 11.2583 39.2451 10.2605 38.5334 9.47654C37.5015 8.3006 35.7935 8.26496 34.7616 9.44091C34.4057 9.83289 34.1566 10.2961 33.9076 10.7594C33.4094 11.8997 33.3026 13.0757 33.2671 14.2516Z" fill="#001965"/>
<path d="M51.0233 8.12238C51.984 8.12238 52.8736 8.12238 53.8344 8.12238C53.8344 8.47873 53.8344 8.79944 53.8344 9.12015C53.8344 9.19142 53.6565 9.29833 53.5497 9.29833C52.838 9.29833 52.0908 9.33396 51.3791 9.29833C51.0944 9.29833 51.0233 9.3696 51.0233 9.65467C51.0233 13.0756 51.0233 16.5322 51.0233 19.9531C51.0233 20.0957 51.0233 20.2382 51.0233 20.3807C50.1337 20.3807 49.2441 20.3807 48.3545 20.3807C48.3545 20.2738 48.3545 20.1669 48.3545 20.06C48.3545 14.7861 48.3545 9.51213 48.3545 4.27383C48.3545 3.70367 48.4257 3.09788 48.5324 2.52772C48.7459 1.38741 49.4576 0.674717 50.5963 0.496543C51.557 0.354004 52.5178 0.389639 53.443 0.354004C53.6209 0.354004 53.692 0.425273 53.692 0.603447C53.7276 1.38741 53.7276 1.38741 52.9804 1.42305C52.7313 1.42305 52.4466 1.45868 52.1975 1.49432C51.3435 1.67249 51.0233 1.9932 51.0233 2.88407C50.9877 4.02438 51.0233 5.20033 50.9877 6.34064C51.0233 6.94643 51.0233 7.51659 51.0233 8.12238Z" fill="#001965"/>
<path d="M30.5271 28.4697C31.3811 28.4697 32.1995 28.4697 33.018 28.4697C33.0891 28.4697 33.1959 28.6123 33.1959 28.7192C33.2315 29.0399 33.1959 29.3606 33.1959 29.6457C33.1959 31.8907 33.1959 34.1 33.1959 36.345C33.1959 36.8795 33.3026 37.4497 33.445 37.9486C33.7652 38.9107 34.5481 39.3739 35.5444 39.4809C35.8291 39.5165 36.1137 39.5165 36.3984 39.4452C37.5727 39.267 38.142 38.59 38.3199 37.2715C38.3911 36.737 38.4267 36.1668 38.4267 35.6323C38.4267 33.3873 38.4267 31.1067 38.4267 28.8617C38.4267 28.541 38.5334 28.4341 38.8537 28.4341C39.6009 28.4697 39.6009 28.4341 39.6009 29.1824C39.6009 31.6412 39.6365 34.1 39.6009 36.5588C39.6009 37.2002 39.4942 37.9129 39.2807 38.5187C38.7825 39.9797 37.6794 40.7637 36.1849 40.9775C35.2597 41.1201 34.3701 41.0488 33.4805 40.7993C31.9149 40.3361 30.9897 39.267 30.705 37.6991C30.5983 37.2002 30.5627 36.7013 30.5627 36.2381C30.5627 33.7793 30.5627 31.3561 30.5627 28.8973C30.5271 28.7904 30.5271 28.6835 30.5271 28.4697Z" fill="#001965"/>
<path d="M100.876 20.3807C99.9509 20.3807 99.0613 20.3807 98.1717 20.3807C97.8871 19.4185 97.6024 18.4564 97.3177 17.4943C97.211 17.2092 97.211 16.7816 96.9975 16.639C96.784 16.4965 96.3926 16.5678 96.0723 16.5678C94.9692 16.5678 93.9017 16.5678 92.7986 16.5678C92.5139 16.5678 92.4072 16.6747 92.3716 16.9241C92.0869 17.9931 91.7667 19.0622 91.482 20.1312C91.4108 20.345 91.3397 20.4163 91.0906 20.4163C90.8415 20.3807 90.5568 20.4163 90.2366 20.4163C90.4145 19.8105 90.5568 19.276 90.6992 18.7058C91.5532 15.6769 92.3716 12.6836 93.2256 9.65462C93.2968 9.44081 93.3324 9.26264 93.4391 9.08446C94.1152 7.62344 95.9656 7.33836 97.0331 8.51431C97.3889 8.90629 97.638 9.40518 97.7803 9.90406C98.8123 13.2894 99.8086 16.6747 100.805 20.0956C100.805 20.1669 100.841 20.2381 100.876 20.3807ZM96.7484 15.5344C96.7128 15.4274 96.7128 15.3205 96.6772 15.2493C96.5349 14.7504 96.3926 14.2515 96.2502 13.7526C95.93 12.5767 95.6097 11.4007 95.2539 10.2604C95.1827 9.97533 95.076 9.61898 94.6845 9.65462C94.3287 9.65462 94.3287 10.011 94.222 10.2604C94.1864 10.3317 94.1864 10.4386 94.1508 10.5099C93.8661 11.472 93.617 12.4341 93.3324 13.3963C93.1189 14.109 92.9409 14.8217 92.7274 15.57C94.0796 15.5344 95.3962 15.5344 96.7484 15.5344Z" fill="#001965"/>
<path d="M129.165 8.1223C129.165 8.47864 129.165 8.79936 129.165 9.12007C129.023 9.12007 128.916 9.12007 128.809 9.12007C127.564 9.12007 126.319 9.12007 125.109 9.12007C124.006 9.12007 123.792 9.33388 123.792 10.4029C123.792 11.2225 123.792 12.0065 123.792 12.8261C123.792 12.933 123.792 13.0755 123.792 13.2181C123.97 13.2181 124.112 13.2537 124.219 13.2537C125.429 13.2537 126.603 13.2537 127.813 13.2537C128.133 13.2537 128.24 13.3606 128.204 13.6457C128.204 14.4296 128.204 14.4296 127.422 14.4296C126.319 14.4296 125.251 14.4296 124.148 14.4296C124.041 14.4296 123.899 14.4296 123.756 14.4296C123.756 14.5722 123.756 14.6791 123.756 14.7504C123.756 15.9263 123.756 17.1379 123.756 18.3138C123.756 19.0265 123.934 19.2403 124.646 19.3116C124.966 19.3472 125.322 19.3472 125.642 19.3472C126.746 19.3472 127.849 19.3472 128.952 19.3472C129.058 19.3472 129.165 19.3472 129.308 19.3472C129.308 19.7036 129.308 19.9887 129.308 20.345C129.201 20.345 129.094 20.345 128.952 20.345C126.995 20.345 125.037 20.345 123.08 20.345C122.902 20.345 122.689 20.345 122.511 20.3094C121.55 20.1668 121.194 19.8105 121.159 18.8127C121.123 18.4207 121.123 18.0644 121.123 17.6724C121.123 14.9998 121.123 12.3272 121.159 9.69022C121.159 9.54768 121.194 9.40515 121.194 9.26261C121.337 8.51428 121.621 8.2292 122.404 8.1223C122.689 8.08666 122.974 8.05103 123.258 8.05103C125.109 8.05103 126.995 8.05103 128.845 8.05103C128.952 8.12229 129.058 8.1223 129.165 8.1223Z" fill="#001965"/>
<path d="M94.7912 33.6011C94.7912 33.9931 94.7912 34.3495 94.7912 34.7414C93.3323 34.7414 91.8734 34.7414 90.4144 34.7414C90.4144 34.884 90.3789 34.9909 90.3789 35.0978C90.3789 36.2381 90.3789 37.3784 90.3789 38.5187C90.3789 38.6613 90.3789 38.8038 90.4144 38.9463C90.4856 39.3739 90.6279 39.5521 91.0905 39.6234C91.3396 39.659 91.6243 39.6947 91.909 39.6947C93.1188 39.6947 94.3287 39.6947 95.5741 39.6947C95.6808 39.6947 95.8232 39.6947 95.9299 39.6947C95.9299 40.051 95.9299 40.3361 95.9299 40.6924C95.8232 40.6924 95.7164 40.6924 95.6097 40.6924C93.6526 40.6924 91.6599 40.6924 89.7028 40.6924C89.4537 40.6924 89.169 40.6568 88.9199 40.6212C88.315 40.5143 87.9592 40.1935 87.8524 39.5521C87.8168 39.3027 87.7812 39.0532 87.7812 38.7682C87.7812 35.953 87.7812 33.1735 87.7812 30.3584C87.7812 30.1089 87.8168 29.8238 87.8524 29.5744C87.9948 28.8261 88.4218 28.5054 89.3825 28.4697C91.1973 28.4341 93.0476 28.4341 94.8624 28.4341C95.1115 28.4341 95.3606 28.4341 95.6097 28.4341C95.6808 28.4341 95.8232 28.5054 95.8232 28.5766C95.8588 28.8261 95.8588 29.0399 95.8232 29.2893C95.8232 29.3606 95.6452 29.4319 95.5385 29.4319C94.7201 29.4319 93.9016 29.4319 93.0832 29.4319C92.5139 29.4319 91.9445 29.4319 91.3752 29.4675C90.6991 29.5031 90.4856 29.7169 90.45 30.3584C90.4144 31.3561 90.45 32.3183 90.45 33.316C90.45 33.5655 90.5924 33.5655 90.7703 33.5655C92.0157 33.5655 93.2256 33.5655 94.471 33.5655C94.5066 33.6011 94.6489 33.6011 94.7912 33.6011Z" fill="#001965"/>
<path d="M104.684 39.5523C105.182 39.6235 105.68 39.7304 106.143 39.8017C106.961 39.9086 107.779 39.9086 108.562 39.6948C109.986 39.3028 110.448 37.8418 109.452 36.7728C109.06 36.3451 108.527 36.0244 108.028 35.7037C107.174 35.1336 106.249 34.6703 105.431 34.0289C104.577 33.3875 104.292 32.461 104.434 31.4275C104.612 29.7883 105.751 28.8262 107.174 28.4699C108.384 28.1491 109.594 28.2204 110.804 28.363C110.946 28.363 111.053 28.3986 111.195 28.3986C111.302 28.4342 111.409 28.4342 111.551 28.4699C111.551 28.7906 111.551 29.0757 111.551 29.432C110.946 29.3607 110.341 29.2895 109.772 29.2538C109.096 29.1826 108.455 29.2182 107.851 29.4676C106.783 29.8953 106.498 30.9999 107.281 31.8552C107.637 32.2471 108.135 32.5679 108.562 32.8529C109.452 33.4231 110.341 33.9932 111.231 34.5278C113.366 35.8463 113.01 39.2672 110.626 40.3006C109.63 40.7282 108.633 40.8708 107.566 40.8351C106.676 40.7995 105.822 40.6569 104.933 40.55C104.755 40.5144 104.684 40.4431 104.684 40.265C104.684 40.0512 104.684 39.8017 104.684 39.5523Z" fill="#001965"/>
<path d="M62.8727 20.3807C61.9475 20.3807 61.0935 20.3807 60.2039 20.3807C60.2039 20.2381 60.2039 20.0956 60.2039 19.9887C60.2039 16.4965 60.2039 13.0043 60.2039 9.54771C60.2039 9.227 60.1327 9.15573 59.8124 9.15573C59.1008 9.19137 58.3891 9.15573 57.6418 9.15573C57.6418 8.79938 57.6418 8.47867 57.6418 8.15796C60.2395 8.15796 62.8371 8.15796 65.4703 8.15796C65.4703 8.47867 65.4703 8.79938 65.4703 9.15573C65.1144 9.15573 64.7586 9.15573 64.4028 9.15573C63.9757 9.15573 63.5843 9.15573 63.1573 9.15573C62.9794 9.15573 62.8727 9.227 62.9082 9.40517C62.9082 9.47644 62.9082 9.58335 62.9082 9.65462C62.9082 13.0756 62.9082 16.5321 62.9082 19.9531C62.8727 20.06 62.8727 20.2025 62.8727 20.3807Z" fill="#001965"/>
<path d="M125.82 40.6926C124.931 40.6926 124.077 40.6926 123.187 40.6926C123.187 36.9509 123.187 33.2449 123.187 29.4676C122.831 29.4676 122.547 29.4676 122.226 29.4676C121.764 29.4676 121.337 29.4676 120.874 29.4676C120.661 29.4676 120.589 29.3964 120.589 29.1826C120.625 28.2917 120.483 28.4699 121.301 28.4699C123.543 28.4699 125.785 28.4699 128.026 28.4699C128.169 28.4699 128.311 28.4699 128.489 28.5055C128.489 28.7906 128.525 29.04 128.489 29.2895C128.489 29.3607 128.311 29.4676 128.24 29.4676C127.635 29.4676 127.066 29.4676 126.461 29.4676C125.82 29.4676 125.891 29.3964 125.891 30.0378C125.891 33.4231 125.891 36.844 125.891 40.2293C125.82 40.4075 125.82 40.55 125.82 40.6926Z" fill="#001965"/>
<path d="M138.31 1.95763C141.584 1.95763 144.253 4.63023 144.253 7.90863C144.253 11.187 141.584 13.8596 138.31 13.8596C135.036 13.8596 132.368 11.187 132.368 7.90863C132.368 4.5946 135.036 1.92199 138.31 1.95763ZM133.293 7.87299C133.293 10.6525 135.535 12.8975 138.31 12.8975C141.086 12.8975 143.327 10.6525 143.327 7.87299C143.327 5.09349 141.086 2.8485 138.31 2.8485C135.535 2.8485 133.293 5.09349 133.293 7.87299Z" fill="#001965"/>
<path d="M139.449 8.5501C139.876 9.26279 140.338 9.93985 140.765 10.6525C140.73 10.6525 140.73 10.6525 140.73 10.6525C140.445 10.6525 140.196 10.6525 139.911 10.6525C139.876 10.6525 139.876 10.6525 139.84 10.6169C139.413 9.97549 139.022 9.33406 138.595 8.657C138.559 8.62137 138.559 8.62137 138.524 8.62137C138.168 8.62137 137.812 8.62137 137.421 8.62137H137.385C137.385 9.29843 137.385 9.97549 137.385 10.6525C137.065 10.6525 136.78 10.6525 136.46 10.6525C136.46 8.83517 136.46 6.98217 136.46 5.16479H136.495C137.278 5.16479 138.061 5.16479 138.88 5.16479C139.129 5.16479 139.413 5.20043 139.662 5.2717C139.876 5.34297 140.089 5.41424 140.267 5.55678C140.516 5.73495 140.73 5.98439 140.801 6.30511C140.837 6.48328 140.872 6.62582 140.872 6.80399C140.908 7.0178 140.837 7.23161 140.801 7.44542C140.765 7.58796 140.73 7.7305 140.623 7.87304C140.41 8.15811 140.161 8.37192 139.805 8.44319C139.698 8.47883 139.591 8.51446 139.449 8.5501ZM137.385 7.8374C137.848 7.8374 138.275 7.8374 138.702 7.8374C138.808 7.8374 138.88 7.8374 138.986 7.80177C139.129 7.76613 139.235 7.7305 139.378 7.69486C139.484 7.65923 139.556 7.62359 139.627 7.58796C139.769 7.48105 139.876 7.37415 139.911 7.19598C139.983 6.98217 139.983 6.80399 139.947 6.59018C139.911 6.44765 139.876 6.30511 139.734 6.23384C139.627 6.16257 139.52 6.0913 139.413 6.02003C139.342 5.98439 139.235 5.94876 139.164 5.94876C139.093 5.94876 139.057 5.94876 138.986 5.91312C138.915 5.91312 138.808 5.87749 138.737 5.87749C138.31 5.87749 137.848 5.87749 137.421 5.87749H137.385C137.385 6.51892 137.385 7.19598 137.385 7.8374Z" fill="#001965"/>
</svg>
